<?xml version="1.0" ?><svg viewBox="0 0 22.516 22.576" xmlns="http://www.w3.org/2000/svg"><g data-name="Layer 2" id="Layer_2"><g data-name="Layer 1" id="Layer_1-2"><path d="M12.6,21.891H11.571V.684H12.6A.342.342,0,0,0,12.6,0H11.229c-14.976.62-14.969,21.961,0,22.576H12.6A.343.343,0,0,0,12.6,21.891ZM10.887,11.63v3.482a14.042,14.042,0,0,0-4.075.758,11.109,11.109,0,0,1-1.094-4.24Zm-5.169-.684A11.114,11.114,0,0,1,6.812,6.705a14.042,14.042,0,0,0,4.075.758v3.483ZM10.887,1.12V6.778a13.282,13.282,0,0,1-3.773-.691A20.326,20.326,0,0,1,10.887,1.12Zm-.6-.382a20.306,20.306,0,0,0-3.84,5.111A18.845,18.845,0,0,1,3.3,4.284,10.581,10.581,0,0,1,10.291.738ZM2.851,4.813a19.71,19.71,0,0,0,3.3,1.655,11.82,11.82,0,0,0-1.121,4.478H.634A10.523,10.523,0,0,1,2.851,4.813ZM5.033,11.63a11.82,11.82,0,0,0,1.121,4.478,19.685,19.685,0,0,0-3.3,1.655A10.531,10.531,0,0,1,.634,11.63ZM3.3,18.291a18.96,18.96,0,0,1,3.155-1.565,20.315,20.315,0,0,0,3.84,5.112A10.582,10.582,0,0,1,3.3,18.291Zm3.818-1.8a13.317,13.317,0,0,1,3.773-.691v5.658A20.305,20.305,0,0,1,7.114,16.488Zm13.234-14.2a.348.348,0,0,1-.242-.589A.341.341,0,1,1,20.348,2.283Zm-1.825,0a.342.342,0,0,1,0-.684A.342.342,0,0,1,18.523,2.283Zm-1.824,0a.349.349,0,0,1-.241-.589A.342.342,0,1,1,16.7,2.283ZM22.516.342V22.233a.343.343,0,0,1-.342.343H14.422a.343.343,0,0,1,0-.685h7.41V3.877H13.054a.342.342,0,1,1,0-.684h8.778V.684h-7.41a.342.342,0,0,1,0-.684h7.752A.342.342,0,0,1,22.516.342Zm-3.42,10.6V7.069h-6.04a.342.342,0,0,1,0-.684h6.382a.342.342,0,0,1,.342.342v4.561a.342.342,0,0,1-.342.342H13.056a.342.342,0,0,1,0-.684Zm-6.383,3.079a.343.343,0,0,1,.343-.342h6.382a.342.342,0,0,1,0,.684H13.056A.343.343,0,0,1,12.713,14.025Zm0,2.736a.342.342,0,0,1,.343-.341h6.382a.342.342,0,1,1,0,.683H13.056A.342.342,0,0,1,12.713,16.761Zm4.444,3.079h-4.1a.342.342,0,0,1,0-.683h4.1A.342.342,0,0,1,17.157,19.84Z" id="domain"/></g></g></svg>