<?xml version="1.0" ?><!DOCTYPE svg  PUBLIC '-//W3C//DTD SVG 1.1//EN'  'http://www.w3.org/Graphics/SVG/1.1/DTD/svg11.dtd'><svg enable-background="new -258.109 -7 1024 1024" height="1024px" version="1.1" viewBox="-258.109 -7 1024 1024" width="1024px" xml:space="preserve" xmlns="http://www.w3.org/2000/svg" xmlns:xlink="http://www.w3.org/1999/xlink"><defs/><path d="M332.391,2.5h0.5v6.81c-0.32-0.35-0.5-0.81-0.5-1.31V2.5z" fill="#464644"/><path d="M416.221,2.5V8c0,0.67-0.33,1.26-0.83,1.62V2.5H416.221z" fill="#464644"/><path d="M4.28,337.67V941c0,40.869,33.13,74,74,74h367.5c40.87,0,74-33.131,74-74V78.5c0-40.87-33.13-74-74-74H431V2  c0-1.1-0.89-2-2-2h-79.83c-1.1,0-2,0.9-2,2v2.5H78.28c-40.87,0-74,33.13-74,74v15.58 M4.28,290.5v-0.42H2c-1.1,0-2,0.9-2,2v43.59  c0,1.1,0.9,2,2,2h2.28v-0.42 M4.28,237.17v52.91 M4.28,200.41v-0.33H2c-1.1,0-2,0.7-2,1.56v33.97c0,0.86,0.9,1.56,2,1.56h2.28v-0.33   M4.28,141.67v58.41 M4.28,94.5v-0.42H2c-1.1,0-2,0.9-2,2v43.59c0,1.1,0.9,2,2,2h2.28v-0.42 M213.154,92.713  c0-5.924,5.059-10.726,11.301-10.726h75.148c6.24,0,11.301,4.802,11.301,10.726v1.341c0,5.924-5.061,10.726-11.301,10.726h-75.148  c-6.242,0-11.301-4.802-11.301-10.726V92.713z M174.363,81.438c6.598,0,11.945,5.348,11.945,11.946s-5.347,11.946-11.945,11.946  s-11.946-5.348-11.946-11.946S167.765,81.438,174.363,81.438z M262.029,971.25c-26.74,0-48.417-21.678-48.417-48.416  c0-26.74,21.677-48.418,48.417-48.418c26.739,0,48.417,21.678,48.417,48.418C310.446,949.573,288.769,971.25,262.029,971.25z   M38.029,179.333c0-3.313,2.686-6,6-6h436c3.313,0,6,2.687,6,6V836c0,3.313-2.687,6-6,6h-436c-3.314,0-6-2.688-6-6" fill="#212121"/></svg>